<svg xmlns="http://www.w3.org/2000/svg" viewBox="0 0 512 512" role="img" aria-labelledby="title"><title id="title">Brood Spawn</title><defs>
 <linearGradient id="body" x1="0" y1="0" x2=".85" y2="1" gradientUnits="objectBoundingBox"><stop stop-color="#a8703a"/><stop offset=".45" stop-color="#a8703a"/><stop offset="1" stop-color="#202030"/></linearGradient>
 <linearGradient id="trim" x2=".8" y2="1"><stop stop-color="#ffe0a8"/><stop offset=".5" stop-color="#a8703a"/><stop offset="1" stop-color="#272033"/></linearGradient>
 <radialGradient id="light"><stop stop-color="#fff9e8"/><stop offset=".35" stop-color="#ffe0a8"/><stop offset="1" stop-color="#ffe0a8" stop-opacity=".7"/></radialGradient>
 <radialGradient id="ground"><stop stop-color="#a8703a" stop-opacity=".35"/><stop offset="1" stop-color="#a8703a" stop-opacity="0"/></radialGradient>
 <linearGradient id="metal" x2=".8" y2="1"><stop stop-color="#a7abb2"/><stop offset=".4" stop-color="#5c596a"/><stop offset="1" stop-color="#242331"/></linearGradient>
 <linearGradient id="bone" x2=".5" y2="1"><stop stop-color="#f0e3b8"/><stop offset="1" stop-color="#81775f"/></linearGradient>
 <filter id="glow" x="-100%" y="-100%" width="300%" height="300%"><feGaussianBlur stdDeviation="4" result="b"/><feMerge><feMergeNode in="b"/><feMergeNode in="SourceGraphic"/></feMerge></filter>
 </defs><ellipse cx="260" cy="440" rx="193" ry="42" fill="url(#ground)"/><ellipse cx="260" cy="440" rx="117" ry="15" fill="#121321" opacity=".24"/><path d="M362 385Q424 372 407 335Q391 310 352 332Q387 280 351 248Q322 230 295 264Q320 207 280 185Q244 167 227 206Q211 139 160 151Q105 164 111 226Q107 280 141 319Q157 373 219 396Q296 423 362 385Z" fill="url(#body)" stroke="#1b1827" stroke-width="3" stroke-linejoin="round" stroke-linecap="round" /><path d="M170 159Q171 121 185 106L195 165 M123 178Q85 153 89 137L147 166" fill="url(#trim)" stroke="#1b1827" stroke-width="3" stroke-linejoin="round" stroke-linecap="round" /><path d="M137 268Q187 287 225 250 M164 322Q204 336 246 302 M219 367Q257 373 294 333 M299 384Q336 373 352 341" fill="none" stroke="#3a261f" stroke-width="9" stroke-linejoin="round" stroke-linecap="round" /><path d="M149 260Q190 272 218 248 M180 315Q206 325 238 301 M234 357Q268 359 284 333" fill="none" stroke="#ffe0a8" stroke-width="3" stroke-linejoin="round" stroke-linecap="round" opacity=".45"/><path d="M184 364l-18 48 36-30 M260 394l-4 40 26-36 M338 396l15 25 12-42" fill="url(#trim)" stroke="#1b1827" stroke-width="3" stroke-linejoin="round" stroke-linecap="round" /><path d="M116 201 Q140 193 161 212 Q139 231 116 201 M189 212 Q213 193 234 201 Q210 231 189 212" fill="url(#light)" stroke="#1b1827" stroke-width="3" stroke-linejoin="round" stroke-linecap="round" /><path d="M140 202v17 M210 202v17" fill="none" stroke="#201b28" stroke-width="5" stroke-linejoin="round" stroke-linecap="round" /><path d="M157 247l17 18 23-20" fill="#34251e" stroke="#1b1827" stroke-width="3" stroke-linejoin="round" stroke-linecap="round" /><path d="M162 247l6 12 7-10 M186 248l6 9 6-12" fill="url(#bone)" stroke="none" stroke-width="3" stroke-linejoin="round" stroke-linecap="round" /><path d="M116 211L147 168L172 185L143 245Z" fill="#ffe0a8" stroke="none" stroke-width="0" stroke-linejoin="round" stroke-linecap="round" opacity=".12"/><ellipse cx="281" cy="222" rx="7" ry="5" fill="#ffe0a8" opacity=".4"/></svg>