<svg xmlns="http://www.w3.org/2000/svg" viewBox="0 0 512 512" role="img" aria-labelledby="title"><title id="title">Core Colossus</title><defs>
<linearGradient id="body" x1=".15" y1="0" x2=".85" y2="1"><stop stop-color="#797383"/><stop offset=".42" stop-color="#4a4258"/><stop offset="1" stop-color="#211d27"/></linearGradient>
<linearGradient id="cloth" x1="0" x2="1" y2=".8"><stop stop-color="#6b6476"/><stop offset=".47" stop-color="#4a4258"/><stop offset="1" stop-color="#1c1921"/></linearGradient>
<linearGradient id="facet" x1="0" y1="0" x2="1" y2="1"><stop stop-color="#928e9b" stop-opacity=".7"/><stop offset="1" stop-color="#4a4258" stop-opacity="0"/></linearGradient>
<linearGradient id="metal" x1="0" y1="0" x2=".9" y2="1"><stop stop-color="#9893a0"/><stop offset=".3" stop-color="#60596c"/><stop offset=".55" stop-color="#4a4258"/><stop offset="1" stop-color="#25212c"/></linearGradient>
<linearGradient id="bone" x1="0" y1="0" x2="1" y2="1"><stop stop-color="#eee6cc"/><stop offset=".45" stop-color="#ff8058"/><stop offset="1" stop-color="#433b4f"/></linearGradient>
<radialGradient id="eye"><stop stop-color="#fff6de"/><stop offset=".4" stop-color="#ff6a3a"/><stop offset="1" stop-color="#d15730"/></radialGradient>
<radialGradient id="gel" cx=".35" cy=".25" r=".82"><stop stop-color="#8f8a97" stop-opacity=".94"/><stop offset=".45" stop-color="#4a4258" stop-opacity=".95"/><stop offset="1" stop-color="#1e1a23"/></radialGradient>
<radialGradient id="bubble" cx=".3" cy=".25"><stop stop-color="#ff6a3a" stop-opacity=".45"/><stop offset=".6" stop-color="#4a4258" stop-opacity=".15"/><stop offset="1" stop-color="#25212c" stop-opacity=".55"/></radialGradient>
<radialGradient id="ground"><stop stop-color="#ff6a3a" stop-opacity=".17"/><stop offset="1" stop-color="#ff6a3a" stop-opacity="0"/></radialGradient>
<radialGradient id="shadow"><stop stop-color="#11141e" stop-opacity=".65"/><stop offset="1" stop-color="#11141e" stop-opacity="0"/></radialGradient>
</defs><ellipse cx="256" cy="433" rx="225" ry="59" fill="url(#ground)"/><ellipse cx="256" cy="441" rx="180" ry="28" fill="url(#shadow)"/><g stroke="#1e1c28" stroke-width="2.5" stroke-linejoin="round" stroke-linecap="round"><path d="M156 314L142 417 105 441 193 448 219 348M291 342L312 443 401 441 363 403 351 309" fill="url(#body)"/><path d="M139 161L86 181 52 246 52 323 102 357 151 330 164 242M337 156L386 174 444 240 460 321 413 356 365 326 343 251" fill="url(#body)"/><path d="M151 150L244 114 343 158 365 265 316 359 191 363 133 270Z" fill="url(#body)"/><path d="M145 166L212 141 224 196 189 245 139 235M271 140L334 175 351 234 307 249 275 197M163 274L213 283 230 341 190 346M292 280L345 272 316 340 272 341" fill="url(#metal)"/><path d="M209 216L252 192 294 218 306 263 274 295 234 291 203 258Z" fill="#211d2b"/><path d="M229 226L254 211 280 229 281 258 258 280 233 261Z" fill="url(#eye)"/><path d="M252 216L241 247 256 240 254 269 274 243 263 242 268 225" fill="#ffe3bd"/><path d="M205 72L247 52 287 66 316 110 286 159 226 160 195 118Z" fill="url(#metal)"/><path d="M218 102L242 110 238 125 220 118M263 111L290 99 286 119 265 126" fill="#ff6a3a"/><path d="M240 145L274 140" stroke="#ff6a3a" stroke-width="4"/><path d="M100 180L116 121 140 155 161 106 178 157M337 149L353 103 372 155 395 128 402 181" fill="url(#metal)"/><path d="M70 248L109 229 139 260 132 303 99 332 61 307M376 243L413 232 443 280 434 317 406 330 373 295" fill="url(#metal)"/><path d="M181 178L187 201 173 220M307 183L292 201 302 219M213 306L195 317 202 339M294 305L311 322 301 341M91 257L108 275 94 295M409 264L396 281 416 305M165 390L179 404 166 425" fill="none" stroke="#ff6a3a" stroke-opacity=".65" stroke-width="3"/><path d="M147 171L196 149M283 68L301 96M62 259L59 298M362 409L381 429" fill="none" stroke="#ff6a3a" stroke-opacity=".3" stroke-width="4"/><g fill="url(#body)"><path d="M88 378L74 395 96 400 106 388ZM403 381L426 393 416 411 396 399ZM63 425L75 439 51 443Z"/></g></g></svg>