<svg xmlns="http://www.w3.org/2000/svg" viewBox="0 0 512 512" role="img" aria-labelledby="title"><title id="title">Cult Archer</title><defs>
<linearGradient id="body" x1=".15" y1="0" x2=".85" y2="1"><stop stop-color="#9d85a8"/><stop offset=".42" stop-color="#7a5a8a"/><stop offset="1" stop-color="#36283d"/></linearGradient>
<linearGradient id="cloth" x1="0" x2="1" y2=".8"><stop stop-color="#92789f"/><stop offset=".47" stop-color="#7a5a8a"/><stop offset="1" stop-color="#2e2234"/></linearGradient>
<linearGradient id="facet" x1="0" y1="0" x2="1" y2="1"><stop stop-color="#af9cb9" stop-opacity=".7"/><stop offset="1" stop-color="#7a5a8a" stop-opacity="0"/></linearGradient>
<linearGradient id="metal" x1="0" y1="0" x2=".9" y2="1"><stop stop-color="#b3a1bc"/><stop offset=".3" stop-color="#8a6e98"/><stop offset=".55" stop-color="#7a5a8a"/><stop offset="1" stop-color="#3d2d45"/></linearGradient>
<linearGradient id="bone" x1="0" y1="0" x2="1" y2="1"><stop stop-color="#eee6cc"/><stop offset=".45" stop-color="#ff8ed0"/><stop offset="1" stop-color="#6e517c"/></linearGradient>
<radialGradient id="eye"><stop stop-color="#fff6de"/><stop offset=".4" stop-color="#ff7ac8"/><stop offset="1" stop-color="#d164a4"/></radialGradient>
<radialGradient id="gel" cx=".35" cy=".25" r=".82"><stop stop-color="#ad99b6" stop-opacity=".94"/><stop offset=".45" stop-color="#7a5a8a" stop-opacity=".95"/><stop offset="1" stop-color="#312437"/></radialGradient>
<radialGradient id="bubble" cx=".3" cy=".25"><stop stop-color="#ff7ac8" stop-opacity=".45"/><stop offset=".6" stop-color="#7a5a8a" stop-opacity=".15"/><stop offset="1" stop-color="#3d2d45" stop-opacity=".55"/></radialGradient>
<radialGradient id="ground"><stop stop-color="#ff7ac8" stop-opacity=".17"/><stop offset="1" stop-color="#ff7ac8" stop-opacity="0"/></radialGradient>
<radialGradient id="shadow"><stop stop-color="#11141e" stop-opacity=".65"/><stop offset="1" stop-color="#11141e" stop-opacity="0"/></radialGradient>
</defs><ellipse cx="256" cy="433" rx="225" ry="59" fill="url(#ground)"/><ellipse cx="256" cy="441" rx="180" ry="28" fill="url(#shadow)"/><g stroke="#1e1c28" stroke-width="2.5" stroke-linejoin="round" stroke-linecap="round"><path d="M186 192L143 252 159 354 123 421 157 405 176 440 228 420 272 438 307 404 344 423 319 354 305 230 265 180Z" fill="url(#cloth)"/><path d="M211 229L220 316 194 409 169 425 178 334 163 259M268 220L281 308 302 410 276 409 247 324" fill="url(#facet)"/><path d="M202 194L162 228 173 280 260 300 279 278 218 251 218 217M277 202L307 244 357 245 369 264 355 280 289 271 259 234" fill="url(#body)"/><path d="M313 111Q420 235 341 385L355 360Q391 247 328 137Z" fill="url(#bone)"/><path d="M323 122L350 256 345 375" fill="none" stroke="#ff7ac8" stroke-width="3"/><path d="M244 274L431 221 453 223 433 239Z" fill="url(#metal)"/><path d="M431 221L462 213 441 236" fill="#ff7ac8"/><path d="M205 97L245 65 284 106 294 161 266 207 206 192 184 145Z" fill="url(#cloth)"/><path d="M211 119L248 92 273 125 275 165 253 186 218 174 201 149Z" fill="#292033"/><path d="M215 139L235 144M249 143L266 136" stroke="#ff7ac8" stroke-width="5"/><path d="M230 161L256 164 249 180 235 174" fill="url(#bone)"/><path d="M207 105L231 87 225 116 208 149M270 110L285 144 276 174" fill="url(#facet)"/><path d="M181 307L271 323 276 339 177 324Z" fill="#33273b"/><path d="M229 316L252 321 248 339 224 334Z" fill="url(#metal)"/><path d="M199 361L204 395 192 416M285 351L291 390M157 232L166 249M250 77L275 109" fill="none" stroke="#ff7ac8" stroke-opacity=".45" stroke-width="3"/><path d="M300 303L322 305 333 367 311 376Z" fill="url(#body)"/><path d="M304 305L286 228M314 307L300 232M322 306L316 230" stroke="url(#bone)" stroke-width="4"/><path d="M291 233L282 216 279 237M304 237L301 219 294 242M321 236L320 218 311 243" fill="#ff7ac8" opacity=".5"/></g></svg>