<svg xmlns="http://www.w3.org/2000/svg" viewBox="0 0 512 512" role="img" aria-labelledby="title"><title id="title">Ghoul</title><defs>
<linearGradient id="body" x1=".15" y1="0" x2=".85" y2="1"><stop stop-color="#859179"/><stop offset=".42" stop-color="#5a6b4a"/><stop offset="1" stop-color="#282f21"/></linearGradient>
<linearGradient id="cloth" x1="0" x2="1" y2=".8"><stop stop-color="#78866b"/><stop offset=".47" stop-color="#5a6b4a"/><stop offset="1" stop-color="#22291c"/></linearGradient>
<linearGradient id="facet" x1="0" y1="0" x2="1" y2="1"><stop stop-color="#9ca692" stop-opacity=".7"/><stop offset="1" stop-color="#5a6b4a" stop-opacity="0"/></linearGradient>
<linearGradient id="metal" x1="0" y1="0" x2=".9" y2="1"><stop stop-color="#a1ab98"/><stop offset=".3" stop-color="#6e7d60"/><stop offset=".55" stop-color="#5a6b4a"/><stop offset="1" stop-color="#2d3625"/></linearGradient>
<linearGradient id="bone" x1="0" y1="0" x2="1" y2="1"><stop stop-color="#eee6cc"/><stop offset=".45" stop-color="#cfdcae"/><stop offset="1" stop-color="#516043"/></linearGradient>
<radialGradient id="eye"><stop stop-color="#fff6de"/><stop offset=".4" stop-color="#c7d6a0"/><stop offset="1" stop-color="#a3af83"/></radialGradient>
<radialGradient id="gel" cx=".35" cy=".25" r=".82"><stop stop-color="#99a38f" stop-opacity=".94"/><stop offset=".45" stop-color="#5a6b4a" stop-opacity=".95"/><stop offset="1" stop-color="#242b1e"/></radialGradient>
<radialGradient id="bubble" cx=".3" cy=".25"><stop stop-color="#c7d6a0" stop-opacity=".45"/><stop offset=".6" stop-color="#5a6b4a" stop-opacity=".15"/><stop offset="1" stop-color="#2d3625" stop-opacity=".55"/></radialGradient>
<radialGradient id="ground"><stop stop-color="#c7d6a0" stop-opacity=".17"/><stop offset="1" stop-color="#c7d6a0" stop-opacity="0"/></radialGradient>
<radialGradient id="shadow"><stop stop-color="#11141e" stop-opacity=".65"/><stop offset="1" stop-color="#11141e" stop-opacity="0"/></radialGradient>
</defs><ellipse cx="256" cy="433" rx="225" ry="59" fill="url(#ground)"/><ellipse cx="256" cy="441" rx="180" ry="28" fill="url(#shadow)"/><g stroke="#1e1c28" stroke-width="2.5" stroke-linejoin="round" stroke-linecap="round"><path d="M179 311L165 389 121 422 159 436 210 397 244 331M277 328L298 396 362 435 382 417 333 371 323 287" fill="url(#body)"/><path d="M200 173Q127 189 118 264L96 320 62 333 61 360 92 349 98 378 113 352 125 373 129 337 157 287 178 243M278 191Q347 192 364 255L397 294 432 283 454 303 432 311 461 325 431 327 442 346 412 332 371 320 322 258" fill="url(#body)"/><path d="M191 185L261 166 315 219 323 317 280 358 206 334 165 267Z" fill="url(#body)"/><path d="M190 210L226 240 210 295 179 268M266 193L306 233 284 267 248 233" fill="url(#facet)"/><path d="M227 251L252 255 262 326 229 318Z" fill="#27362b"/><path d="M229 270L261 275M228 289L264 295M231 309L265 316" stroke="#c7d6a0" stroke-opacity=".5" stroke-width="5"/><path d="M203 88L251 69 286 98 293 149 270 186 211 168 187 128Z" fill="url(#body)"/><path d="M204 112L229 105 234 128 206 137M252 107L278 120 267 142 248 130" fill="#17221f"/><path d="M211 118L227 117M254 122L271 127" stroke="#c7d6a0" stroke-width="6"/><path d="M240 127L230 146 251 147M216 154L239 163 270 153 255 181 225 175Z" fill="#263225"/><path d="M222 161L226 172 231 166M247 164L250 179 255 162" fill="url(#bone)"/><path d="M203 98L221 88 217 74 238 80M277 106L299 97 287 137M179 291L202 303 214 336 181 323M280 320L309 308 306 352 281 347" fill="#423c35"/><path d="M192 207L213 216M197 202L197 218M207 205L206 223M290 237L309 252M291 232L287 248M303 243L300 259" stroke="url(#bone)" stroke-width="3"/><path d="M149 245L139 283M320 209L341 239" fill="none" stroke="#c7d6a0" stroke-opacity=".3" stroke-width="4"/></g></svg>