<svg xmlns="http://www.w3.org/2000/svg" viewBox="0 0 512 512" role="img" aria-labelledby="title"><title id="title">Harpy</title><defs>
 <linearGradient id="body" x1="0" y1="0" x2=".85" y2="1" gradientUnits="objectBoundingBox"><stop stop-color="#7a5a52"/><stop offset=".45" stop-color="#7a5a52"/><stop offset="1" stop-color="#202030"/></linearGradient>
 <linearGradient id="trim" x2=".8" y2="1"><stop stop-color="#ffd06a"/><stop offset=".5" stop-color="#7a5a52"/><stop offset="1" stop-color="#272033"/></linearGradient>
 <radialGradient id="light"><stop stop-color="#fff9e8"/><stop offset=".35" stop-color="#ffd06a"/><stop offset="1" stop-color="#ffd06a" stop-opacity=".7"/></radialGradient>
 <radialGradient id="ground"><stop stop-color="#7a5a52" stop-opacity=".35"/><stop offset="1" stop-color="#7a5a52" stop-opacity="0"/></radialGradient>
 <linearGradient id="metal" x2=".8" y2="1"><stop stop-color="#a7abb2"/><stop offset=".4" stop-color="#5c596a"/><stop offset="1" stop-color="#242331"/></linearGradient>
 <linearGradient id="bone" x2=".5" y2="1"><stop stop-color="#f0e3b8"/><stop offset="1" stop-color="#81775f"/></linearGradient>
 <filter id="glow" x="-100%" y="-100%" width="300%" height="300%"><feGaussianBlur stdDeviation="4" result="b"/><feMerge><feMergeNode in="b"/><feMergeNode in="SourceGraphic"/></feMerge></filter>
 </defs><ellipse cx="260" cy="440" rx="193" ry="42" fill="url(#ground)"/><ellipse cx="260" cy="440" rx="117" ry="15" fill="#121321" opacity=".24"/><path d="M221 235Q90 92 80 102Q68 144 46 174Q94 169 236 263Z" fill="url(#body)" stroke="#1b1827" stroke-width="3" stroke-linejoin="round" stroke-linecap="round" /><path d="M80 117Q100 169 224 251" fill="none" stroke="url(#trim)" stroke-width="2" stroke-linejoin="round" stroke-linecap="round" /><path d="M221 235Q109 105 99 115Q87 157 65 187Q113 182 236 263Z" fill="url(#body)" stroke="#1b1827" stroke-width="3" stroke-linejoin="round" stroke-linecap="round" /><path d="M99 130Q119 182 224 251" fill="none" stroke="url(#trim)" stroke-width="2" stroke-linejoin="round" stroke-linecap="round" /><path d="M221 235Q128 118 118 128Q106 170 84 200Q132 195 236 263Z" fill="url(#body)" stroke="#1b1827" stroke-width="3" stroke-linejoin="round" stroke-linecap="round" /><path d="M118 143Q138 195 224 251" fill="none" stroke="url(#trim)" stroke-width="2" stroke-linejoin="round" stroke-linecap="round" /><path d="M221 235Q147 131 137 141Q125 183 103 213Q151 208 236 263Z" fill="url(#body)" stroke="#1b1827" stroke-width="3" stroke-linejoin="round" stroke-linecap="round" /><path d="M137 156Q157 208 224 251" fill="none" stroke="url(#trim)" stroke-width="2" stroke-linejoin="round" stroke-linecap="round" /><path d="M221 235Q166 144 156 154Q144 196 122 226Q170 221 236 263Z" fill="url(#body)" stroke="#1b1827" stroke-width="3" stroke-linejoin="round" stroke-linecap="round" /><path d="M156 169Q176 221 224 251" fill="none" stroke="url(#trim)" stroke-width="2" stroke-linejoin="round" stroke-linecap="round" /><path d="M221 235Q185 157 175 167Q163 209 141 239Q189 234 236 263Z" fill="url(#body)" stroke="#1b1827" stroke-width="3" stroke-linejoin="round" stroke-linecap="round" /><path d="M175 182Q195 234 224 251" fill="none" stroke="url(#trim)" stroke-width="2" stroke-linejoin="round" stroke-linecap="round" /><path d="M221 235Q204 170 194 180Q182 222 160 252Q208 247 236 263Z" fill="url(#body)" stroke="#1b1827" stroke-width="3" stroke-linejoin="round" stroke-linecap="round" /><path d="M194 195Q214 247 224 251" fill="none" stroke="url(#trim)" stroke-width="2" stroke-linejoin="round" stroke-linecap="round" /><g transform="translate(516 15) scale(-1 1)"><path d="M221 235Q90 92 80 102Q68 144 46 174Q94 169 236 263Z" fill="url(#body)" stroke="#1b1827" stroke-width="3" stroke-linejoin="round" stroke-linecap="round" /><path d="M80 117Q100 169 224 251" fill="none" stroke="url(#trim)" stroke-width="2" stroke-linejoin="round" stroke-linecap="round" /><path d="M221 235Q109 105 99 115Q87 157 65 187Q113 182 236 263Z" fill="url(#body)" stroke="#1b1827" stroke-width="3" stroke-linejoin="round" stroke-linecap="round" /><path d="M99 130Q119 182 224 251" fill="none" stroke="url(#trim)" stroke-width="2" stroke-linejoin="round" stroke-linecap="round" /><path d="M221 235Q128 118 118 128Q106 170 84 200Q132 195 236 263Z" fill="url(#body)" stroke="#1b1827" stroke-width="3" stroke-linejoin="round" stroke-linecap="round" /><path d="M118 143Q138 195 224 251" fill="none" stroke="url(#trim)" stroke-width="2" stroke-linejoin="round" stroke-linecap="round" /><path d="M221 235Q147 131 137 141Q125 183 103 213Q151 208 236 263Z" fill="url(#body)" stroke="#1b1827" stroke-width="3" stroke-linejoin="round" stroke-linecap="round" /><path d="M137 156Q157 208 224 251" fill="none" stroke="url(#trim)" stroke-width="2" stroke-linejoin="round" stroke-linecap="round" /><path d="M221 235Q166 144 156 154Q144 196 122 226Q170 221 236 263Z" fill="url(#body)" stroke="#1b1827" stroke-width="3" stroke-linejoin="round" stroke-linecap="round" /><path d="M156 169Q176 221 224 251" fill="none" stroke="url(#trim)" stroke-width="2" stroke-linejoin="round" stroke-linecap="round" /><path d="M221 235Q185 157 175 167Q163 209 141 239Q189 234 236 263Z" fill="url(#body)" stroke="#1b1827" stroke-width="3" stroke-linejoin="round" stroke-linecap="round" /><path d="M175 182Q195 234 224 251" fill="none" stroke="url(#trim)" stroke-width="2" stroke-linejoin="round" stroke-linecap="round" /><path d="M221 235Q204 170 194 180Q182 222 160 252Q208 247 236 263Z" fill="url(#body)" stroke="#1b1827" stroke-width="3" stroke-linejoin="round" stroke-linecap="round" /><path d="M194 195Q214 247 224 251" fill="none" stroke="url(#trim)" stroke-width="2" stroke-linejoin="round" stroke-linecap="round" /></g><path d="M215 261Q208 313 174 340L198 367L237 327L243 376L288 379L306 333L338 345L359 321L294 271Z" fill="url(#body)" stroke="#1b1827" stroke-width="3" stroke-linejoin="round" stroke-linecap="round" /><path d="M217 313L241 351L269 331L292 354L301 302Z" fill="url(#trim)" stroke="#1b1827" stroke-width="3" stroke-linejoin="round" stroke-linecap="round" /><path d="M244 362L228 401L195 411L182 433L219 423L224 439L240 418L263 388 M287 366L313 394L345 387L370 400L339 402L347 422L320 406L283 393" fill="url(#bone)" stroke="#1b1827" stroke-width="3" stroke-linejoin="round" stroke-linecap="round" /><path d="M209 192Q196 155 224 125L247 91L272 131L308 150L286 197L304 263L270 296L223 279L202 234Z" fill="url(#body)" stroke="#1b1827" stroke-width="3" stroke-linejoin="round" stroke-linecap="round" /><path d="M213 170L229 114L247 91L266 135L250 177Z" fill="url(#trim)" stroke="#1b1827" stroke-width="3" stroke-linejoin="round" stroke-linecap="round" /><path d="M228 169L257 151L293 168L305 192L269 211L225 204Z" fill="url(#bone)" stroke="#1b1827" stroke-width="3" stroke-linejoin="round" stroke-linecap="round" /><path d="M201 171 Q225 163 246 182 Q224 201 201 171 M274 182 Q298 163 319 171 Q295 201 274 182" fill="url(#light)" stroke="#1b1827" stroke-width="3" stroke-linejoin="round" stroke-linecap="round" /><path d="M225 172v17 M295 172v17" fill="none" stroke="#201b28" stroke-width="5" stroke-linejoin="round" stroke-linecap="round" /><path d="M254 207L294 215L259 241L243 221Z" fill="url(#trim)" stroke="#1b1827" stroke-width="3" stroke-linejoin="round" stroke-linecap="round" /><path d="M217 238L249 271L280 250L268 294L227 277Z" fill="#e3b57e" stroke="none" stroke-width="0" stroke-linejoin="round" stroke-linecap="round" opacity=".16"/></svg>