<svg xmlns="http://www.w3.org/2000/svg" viewBox="0 0 512 512" role="img" aria-labelledby="title"><title id="title">Slime Bit</title><defs>
 <linearGradient id="body" x1="0" y1="0" x2=".85" y2="1" gradientUnits="objectBoundingBox"><stop stop-color="#5ab07a"/><stop offset=".45" stop-color="#5ab07a"/><stop offset="1" stop-color="#202030"/></linearGradient>
 <linearGradient id="trim" x2=".8" y2="1"><stop stop-color="#d8ffe6"/><stop offset=".5" stop-color="#5ab07a"/><stop offset="1" stop-color="#272033"/></linearGradient>
 <radialGradient id="light"><stop stop-color="#fff9e8"/><stop offset=".35" stop-color="#d8ffe6"/><stop offset="1" stop-color="#d8ffe6" stop-opacity=".7"/></radialGradient>
 <radialGradient id="ground"><stop stop-color="#5ab07a" stop-opacity=".35"/><stop offset="1" stop-color="#5ab07a" stop-opacity="0"/></radialGradient>
 <linearGradient id="metal" x2=".8" y2="1"><stop stop-color="#a7abb2"/><stop offset=".4" stop-color="#5c596a"/><stop offset="1" stop-color="#242331"/></linearGradient>
 <linearGradient id="bone" x2=".5" y2="1"><stop stop-color="#f0e3b8"/><stop offset="1" stop-color="#81775f"/></linearGradient>
 <filter id="glow" x="-100%" y="-100%" width="300%" height="300%"><feGaussianBlur stdDeviation="4" result="b"/><feMerge><feMergeNode in="b"/><feMergeNode in="SourceGraphic"/></feMerge></filter>
 </defs><ellipse cx="260" cy="440" rx="193" ry="42" fill="url(#ground)"/><ellipse cx="260" cy="440" rx="117" ry="15" fill="#121321" opacity=".24"/><path d="M109 391Q78 358 127 300Q143 275 149 245Q155 161 213 183Q246 135 295 168Q350 176 345 244Q352 290 394 329Q437 369 382 393Q319 420 270 401Q204 420 163 399Q128 411 109 391Z" fill="url(#body)" stroke="#1b1827" stroke-width="3" stroke-linejoin="round" stroke-linecap="round" /><path d="M158 300Q160 212 213 211Q236 165 278 183L237 252Z" fill="#b9ffd6" stroke="none" stroke-width="0" stroke-linejoin="round" stroke-linecap="round" opacity=".19"/><path d="M315 260L365 337L301 383L247 303Z" fill="#172f29" stroke="none" stroke-width="0" stroke-linejoin="round" stroke-linecap="round" opacity=".25"/><path d="M197 276 Q221 268 242 287 Q220 306 197 276 M270 287 Q294 268 315 276 Q291 306 270 287" fill="url(#light)" stroke="#1b1827" stroke-width="3" stroke-linejoin="round" stroke-linecap="round" /><path d="M221 277v17 M291 277v17" fill="none" stroke="#201b28" stroke-width="5" stroke-linejoin="round" stroke-linecap="round" /><path d="M224 342Q253 366 285 334Q259 382 224 342Z" fill="#253029" stroke="#1b1827" stroke-width="3" stroke-linejoin="round" stroke-linecap="round" /><path d="M234 348l8 16 8-13 M263 346l8 13 9-21" fill="url(#bone)" stroke="none" stroke-width="3" stroke-linejoin="round" stroke-linecap="round" /><ellipse cx="193" cy="234" rx="16" ry="9" fill="#d8ffe6" opacity=".35"/><ellipse cx="127" cy="343" rx="7" ry="14" fill="#d8ffe6" opacity=".18"/><ellipse cx="112" cy="226" rx="7" ry="7" fill="url(#light)" filter="url(#glow)"/><ellipse cx="359" cy="209" rx="5" ry="5" fill="url(#light)" filter="url(#glow)"/><ellipse cx="381" cy="274" rx="9" ry="9" fill="url(#light)" filter="url(#glow)"/></svg>