<svg xmlns="http://www.w3.org/2000/svg" viewBox="0 0 512 512" role="img" aria-labelledby="title"><title id="title">Stone Brute</title><defs>
<linearGradient id="body" x1=".15" y1="0" x2=".85" y2="1"><stop stop-color="#9d988f"/><stop offset=".42" stop-color="#7a7468"/><stop offset="1" stop-color="#36332e"/></linearGradient>
<linearGradient id="cloth" x1="0" x2="1" y2=".8"><stop stop-color="#928d83"/><stop offset=".47" stop-color="#7a7468"/><stop offset="1" stop-color="#2e2c28"/></linearGradient>
<linearGradient id="facet" x1="0" y1="0" x2="1" y2="1"><stop stop-color="#afaca4" stop-opacity=".7"/><stop offset="1" stop-color="#7a7468" stop-opacity="0"/></linearGradient>
<linearGradient id="metal" x1="0" y1="0" x2=".9" y2="1"><stop stop-color="#b3b0a9"/><stop offset=".3" stop-color="#8a857a"/><stop offset=".55" stop-color="#7a7468"/><stop offset="1" stop-color="#3d3a34"/></linearGradient>
<linearGradient id="bone" x1="0" y1="0" x2="1" y2="1"><stop stop-color="#eee6cc"/><stop offset=".45" stop-color="#ded7c6"/><stop offset="1" stop-color="#6e685e"/></linearGradient>
<radialGradient id="eye"><stop stop-color="#fff6de"/><stop offset=".4" stop-color="#d8d0bc"/><stop offset="1" stop-color="#b1ab9a"/></radialGradient>
<radialGradient id="gel" cx=".35" cy=".25" r=".82"><stop stop-color="#ada9a1" stop-opacity=".94"/><stop offset=".45" stop-color="#7a7468" stop-opacity=".95"/><stop offset="1" stop-color="#312e2a"/></radialGradient>
<radialGradient id="bubble" cx=".3" cy=".25"><stop stop-color="#d8d0bc" stop-opacity=".45"/><stop offset=".6" stop-color="#7a7468" stop-opacity=".15"/><stop offset="1" stop-color="#3d3a34" stop-opacity=".55"/></radialGradient>
<radialGradient id="ground"><stop stop-color="#d8d0bc" stop-opacity=".17"/><stop offset="1" stop-color="#d8d0bc" stop-opacity="0"/></radialGradient>
<radialGradient id="shadow"><stop stop-color="#11141e" stop-opacity=".65"/><stop offset="1" stop-color="#11141e" stop-opacity="0"/></radialGradient>
</defs><ellipse cx="256" cy="433" rx="225" ry="59" fill="url(#ground)"/><ellipse cx="256" cy="441" rx="180" ry="28" fill="url(#shadow)"/><g stroke="#1e1c28" stroke-width="2.5" stroke-linejoin="round" stroke-linecap="round"><path d="M157 317L144 391 117 432 191 440 220 344M278 341L301 425 377 430 349 379 340 311" fill="url(#body)"/><path d="M156 166L112 174 66 240 67 317 112 341 143 309 156 245M320 157L367 167 420 227 444 318 409 345 368 320 337 251" fill="url(#body)"/><path d="M151 170L249 136 331 174 354 270 307 354 193 353 141 276Z" fill="url(#body)"/><path d="M167 185L231 170 220 239 157 257M251 165L315 183 335 240 271 247M191 267L238 242 258 319 199 333" fill="url(#facet)"/><path d="M204 100L247 72 290 86 312 135 289 181 232 185 199 150Z" fill="url(#body)"/><path d="M215 130L244 137 238 150 216 145M262 135L286 123 286 141 267 148" fill="#d8d0bc"/><path d="M250 132L244 158 264 158M233 168L272 165" fill="none" stroke="#3c3935" stroke-width="6"/><path d="M91 237L119 227 122 275 99 301 78 285M386 226L410 247 420 297 390 309 369 273M160 389L176 362 199 391 191 427 154 422" fill="url(#facet)"/><path d="M178 189L192 217 180 240 197 257M309 212L293 230 306 255 287 275M242 277L224 295 231 322M110 189L116 210 96 227M344 379L324 386 329 406M216 109L230 112 240 92" fill="none" stroke="#393932" stroke-width="4"/><path d="M168 184L209 172M85 253L81 281M280 92L297 118M357 184L380 205" fill="none" stroke="#d8d0bc" stroke-opacity=".45" stroke-width="4"/><g fill="#494a40"><path d="M143 423L134 436 151 438ZM383 409L399 421 384 428ZM83 359L99 363 90 374Z"/></g></g></svg>