<svg xmlns="http://www.w3.org/2000/svg" viewBox="0 0 512 512"><defs><radialGradient id="haze"><stop stop-color="#8fe3ff" stop-opacity=".35"/><stop offset=".65" stop-color="#2c6aa0" stop-opacity=".14"/><stop offset="1" stop-color="#142c55" stop-opacity="0"/></radialGradient><radialGradient id="body" cx=".4" cy=".35" r=".8"><stop stop-color="#ffffff"/><stop offset=".4" stop-color="#8fe3ff"/><stop offset="1" stop-color="#2c6aa0"/></radialGradient><linearGradient id="rim" x2=".8" y2="1"><stop stop-color="#ffffff"/><stop offset=".5" stop-color="#2c6aa0"/><stop offset="1" stop-color="#8fe3ff"/></linearGradient><linearGradient id="bolt" x1="0" y1="0" x2="1" y2="1"><stop stop-color="#ffffff"/><stop offset=".5" stop-color="#8fe3ff"/><stop offset="1" stop-color="#2c6aa0"/></linearGradient><linearGradient id="shade" x2="0" y2="1"><stop stop-color="#2c6aa0"/><stop offset="1" stop-color="#142c55"/></linearGradient><filter id="glow" x="-50%" y="-50%" width="200%" height="200%"><feGaussianBlur stdDeviation="7"/></filter></defs><ellipse cx="256" cy="256" rx="244" ry="244" fill="url(#haze)" /><ellipse cx="256" cy="256" rx="184" ry="184" fill="none" stroke="url(#rim)" stroke-width="3" opacity=".7"/><g filter="url(#glow)" opacity=".24"><ellipse cx="256" cy="294" rx="169" ry="88" fill="none" stroke="url(#body)" stroke-width="19" /><ellipse cx="256" cy="294" rx="141" ry="71" fill="none" stroke="#fff" stroke-width="3" /><path d="M256 126 272 228 347 160 310 257 415 253 326 294 415 350 307 328 332 419 269 344 256 441 241 344 176 411 197 327 90 353 185 294 84 256 197 259 164 162 239 230Z" fill="url(#body)" stroke="#b5efff" stroke-width="2" stroke-linejoin="round" stroke-linecap="round" /><ellipse cx="256" cy="294" rx="43" ry="40" fill="#fff" /><path d="M256 187 256 390 M167 241 345 344 M168 345 344 240" fill="none" stroke="#fff" stroke-width="5" stroke-linejoin="round" stroke-linecap="round" /></g><ellipse cx="256" cy="294" rx="169" ry="88" fill="none" stroke="url(#body)" stroke-width="19" /><ellipse cx="256" cy="294" rx="141" ry="71" fill="none" stroke="#fff" stroke-width="3" /><path d="M256 126 272 228 347 160 310 257 415 253 326 294 415 350 307 328 332 419 269 344 256 441 241 344 176 411 197 327 90 353 185 294 84 256 197 259 164 162 239 230Z" fill="url(#body)" stroke="#b5efff" stroke-width="2" stroke-linejoin="round" stroke-linecap="round" /><ellipse cx="256" cy="294" rx="43" ry="40" fill="#fff" /><path d="M256 187 256 390 M167 241 345 344 M168 345 344 240" fill="none" stroke="#fff" stroke-width="5" stroke-linejoin="round" stroke-linecap="round" /><path d="M411.0 252.0 414.0 256.0 411.0 261.0 409.0 256.0Z" fill="#ffffff" opacity="0.45"/><path d="M128.5 369.0 131.5 373.0 128.5 378.0 126.5 373.0Z" fill="#ffffff" opacity="0.65"/><path d="M272.3 61.7 275.3 65.7 272.3 70.7 270.3 65.7Z" fill="#ffffff" opacity="0.8500000000000001"/><path d="M383.6 417.5 386.6 421.5 383.6 426.5 381.6 421.5Z" fill="#ffffff" opacity="0.45"/><path d="M103.3 225.6 106.3 229.6 103.3 234.6 101.3 229.6Z" fill="#ffffff" opacity="0.65"/><path d="M401.5 158.4 404.5 162.4 401.5 167.4 399.5 162.4Z" fill="#ffffff" opacity="0.8500000000000001"/><path d="M207.5 436.7 210.5 440.7 207.5 445.7 205.5 440.7Z" fill="#ffffff" opacity="0.45"/><path d="M158.4 67.2 161.4 71.2 158.4 76.2 156.4 71.2Z" fill="#ffffff" opacity="0.65"/><path d="M402.0 304.0 405.0 308.0 402.0 313.0 400.0 308.0Z" fill="#ffffff" opacity="0.8500000000000001"/><path d="M96.7 319.4 99.7 323.4 96.7 328.4 94.7 323.4Z" fill="#ffffff" opacity="0.45"/><path d="M335.3 78.2 338.3 82.2 335.3 87.2 333.3 82.2Z" fill="#ffffff" opacity="0.65"/><path d="M320.7 450.7 323.7 454.7 320.7 459.7 318.7 454.7Z" fill="#ffffff" opacity="0.8500000000000001"/></svg>
