<svg xmlns="http://www.w3.org/2000/svg" viewBox="0 0 512 512" role="img" aria-labelledby="title" style="--bright:#7dff8a;--light:#d5f5a0;--shade:#26612f"><title id="title">Razor Leaf</title><defs><radialGradient id="mist"><stop stop-color="#7dff8a" stop-opacity=".38"/><stop offset=".55" stop-color="#26612f" stop-opacity=".18"/><stop offset="1" stop-color="#26612f" stop-opacity="0"/></radialGradient><radialGradient id="core" cx=".36" cy=".3"><stop stop-color="#fff"/><stop offset=".23" stop-color="#d5f5a0"/><stop offset=".58" stop-color="#7dff8a"/><stop offset="1" stop-color="#26612f"/></radialGradient><linearGradient id="gem" x1="0" x2="1" y2="1"><stop stop-color="#d5f5a0"/><stop offset=".42" stop-color="#7dff8a"/><stop offset="1" stop-color="#26612f"/></linearGradient><linearGradient id="trail" x1="0" y1="1" x2="1" y2="0"><stop stop-color="#26612f" stop-opacity="0"/><stop offset=".4" stop-color="#7dff8a" stop-opacity=".65"/><stop offset="1" stop-color="#d5f5a0"/></linearGradient><linearGradient id="gold" x2="0" y2="1"><stop stop-color="#fff4c3"/><stop offset=".45" stop-color="#dfb965"/><stop offset="1" stop-color="#835b2f"/></linearGradient><linearGradient id="wood" x2="1" y2=".6"><stop stop-color="#8b653a"/><stop offset=".45" stop-color="#463324"/><stop offset="1" stop-color="#241f22"/></linearGradient><radialGradient id="dark"><stop stop-color="#060410"/><stop offset=".7" stop-color="#150d2a"/><stop offset="1" stop-color="#26612f"/></radialGradient><filter id="glow" x="-.6" y="-.6" width="2.2" height="2.2"><feGaussianBlur stdDeviation="6"/></filter></defs><circle cx="256" cy="256" r="230" fill="url(#mist)" /><ellipse cx="256" cy="355" rx="156" ry="37" fill="none" stroke="#7dff8a" stroke-width="1" opacity=".25"/><path d="M94 349 Q157 263 220 294 Q278 328 308 203 Q324 135 399 130" fill="none" stroke="var(--bright)" stroke-width="14" stroke-linejoin="round" stroke-linecap="round" opacity=".24"/><path d="M94 349 Q157 263 220 294 Q278 328 308 203 Q324 135 399 130" fill="none" stroke="var(--light)" stroke-width="2.5" stroke-linejoin="round" stroke-linecap="round" stroke-dasharray="5 9"/><g transform="translate(142 310) rotate(40) scale(0.8)"><path d="M0 -65 C54 -37 59 21 0 71 C-41 26 -40 -28 0 -65 Z" fill="url(#gem)" stroke="var(--light)" stroke-width="2.5" stroke-linejoin="round" stroke-linecap="round" /><path d="M0 -65 L0 71 L-26 22 L-23 -25 Z" fill="var(--shade)" opacity=".5"/><path d="M0 63 L0 -53 M0 -21 L24 -35 M0 5 L34 -12 M0 31 L27 15 M0 0 L-23 -20 M0 25 L-22 9" fill="none" stroke="var(--light)" stroke-width="2" stroke-linejoin="round" stroke-linecap="round" /><path d="M0 -65 L8 -41 L0 71" fill="none" stroke="#fff" stroke-width="1.5" stroke-linejoin="round" stroke-linecap="round" /></g><g transform="translate(267 265) rotate(-23) scale(1)"><path d="M0 -65 C54 -37 59 21 0 71 C-41 26 -40 -28 0 -65 Z" fill="url(#gem)" stroke="var(--light)" stroke-width="2.5" stroke-linejoin="round" stroke-linecap="round" /><path d="M0 -65 L0 71 L-26 22 L-23 -25 Z" fill="var(--shade)" opacity=".5"/><path d="M0 63 L0 -53 M0 -21 L24 -35 M0 5 L34 -12 M0 31 L27 15 M0 0 L-23 -20 M0 25 L-22 9" fill="none" stroke="var(--light)" stroke-width="2" stroke-linejoin="round" stroke-linecap="round" /><path d="M0 -65 L8 -41 L0 71" fill="none" stroke="#fff" stroke-width="1.5" stroke-linejoin="round" stroke-linecap="round" /></g><g transform="translate(360 148) rotate(55) scale(0.8)"><path d="M0 -65 C54 -37 59 21 0 71 C-41 26 -40 -28 0 -65 Z" fill="url(#gem)" stroke="var(--light)" stroke-width="2.5" stroke-linejoin="round" stroke-linecap="round" /><path d="M0 -65 L0 71 L-26 22 L-23 -25 Z" fill="var(--shade)" opacity=".5"/><path d="M0 63 L0 -53 M0 -21 L24 -35 M0 5 L34 -12 M0 31 L27 15 M0 0 L-23 -20 M0 25 L-22 9" fill="none" stroke="var(--light)" stroke-width="2" stroke-linejoin="round" stroke-linecap="round" /><path d="M0 -65 L8 -41 L0 71" fill="none" stroke="#fff" stroke-width="1.5" stroke-linejoin="round" stroke-linecap="round" /></g><path d="M416.0 253.0 L416.75 255.25 L419.0 256.0 L416.75 256.75 L416.0 259.0 L415.25 256.75 L413.0 256.0 L415.25 255.25 Z" fill="#d5f5a0" /><circle cx="128.5" cy="373.0" r="2" fill="#7dff8a" opacity=".7"/><circle cx="271.9" cy="70.7" r="2" fill="#7dff8a" opacity=".7"/><path d="M353.7 379.7 L354.45 381.95 L356.7 382.7 L354.45 383.45 L353.7 385.7 L352.95 383.45 L350.7 382.7 L352.95 381.95 Z" fill="#d5f5a0" /><circle cx="85.5" cy="226.5" r="2" fill="#7dff8a" opacity=".7"/><circle cx="412.5" cy="155.4" r="2" fill="#7dff8a" opacity=".7"/><path d="M215.4 407.8 L216.15 410.05 L218.4 410.8 L216.15 411.55 L215.4 413.8 L214.65 411.55 L212.4 410.8 L214.65 410.05 Z" fill="#d5f5a0" /><circle cx="175.2" cy="103.0" r="2" fill="#7dff8a" opacity=".7"/><circle cx="431.2" cy="318.5" r="2" fill="#7dff8a" opacity=".7"/><path d="M108.6 315.3 L109.35 317.55 L111.6 318.3 L109.35 319.05 L108.6 321.3 L107.85 319.05 L105.6 318.3 L107.85 317.55 Z" fill="#d5f5a0" /></svg>
