<svg xmlns="http://www.w3.org/2000/svg" viewBox="0 0 512 512"><defs><linearGradient id="metal" x1="0" y1="0" x2=".85" y2="1"><stop stop-color="#fff5ca"/><stop offset=".32" stop-color="#e8be68"/><stop offset=".57" stop-color="#8b582b"/><stop offset=".76" stop-color="#f4d68a"/><stop offset="1" stop-color="#795024"/></linearGradient><linearGradient id="body" x1="0" y1="0" x2="1" y2="1"><stop stop-color="#fff0ab"/><stop offset=".36" stop-color="#e9915d"/><stop offset="1" stop-color="#6e234d"/></linearGradient><radialGradient id="halo"><stop stop-color="#e9915d" stop-opacity=".38"/><stop offset="1" stop-color="#e9915d" stop-opacity="0"/></radialGradient><radialGradient id="badge"><stop stop-color="#29304a" stop-opacity=".85"/><stop offset="1" stop-color="#101426" stop-opacity=".65"/></radialGradient><filter id="glow" x="-80%" y="-80%" width="260%" height="260%"><feGaussianBlur stdDeviation="7"/></filter></defs><circle cx="256" cy="263" r="235" fill="url(#halo)"/><circle cx="256" cy="267" r="186" fill="url(#badge)" stroke="#e9915d" stroke-opacity=".25" stroke-width="2"/><path d="M116 147A185 185 0 0 1 371 129M399 359A185 185 0 0 1 168 430" fill="none" stroke="#fff0ab" stroke-opacity=".35" stroke-width="3"/><ellipse cx="256" cy="426" rx="115" ry="15" fill="#080a17" opacity=".5"/><circle cx="256" cy="263" r="142" fill="url(#metal)" stroke="#fff0b3" stroke-width="5"/><circle cx="256" cy="263" r="119" fill="#421f34" stroke="#8a582d" stroke-width="8"/><circle cx="256" cy="263" r="103" fill="url(#body)" stroke="#f9d998" stroke-width="3"/><path d="M256 168L335 307H177ZM256 352L177 213H335Z" fill="none" stroke="#ffe9a8" stroke-width="8" stroke-linejoin="round" /><path d="M256 221L291 263L256 305L221 263Z" fill="#fff3c1" stroke="none" stroke-width="0" stroke-linejoin="round" /><path d="M250 130h12v21h-12Z" fill="#fff0bd" transform="rotate(0 256 263)"/><path d="M250 130h12v21h-12Z" fill="#fff0bd" transform="rotate(45 256 263)"/><path d="M250 130h12v21h-12Z" fill="#fff0bd" transform="rotate(90 256 263)"/><path d="M250 130h12v21h-12Z" fill="#fff0bd" transform="rotate(135 256 263)"/><path d="M250 130h12v21h-12Z" fill="#fff0bd" transform="rotate(180 256 263)"/><path d="M250 130h12v21h-12Z" fill="#fff0bd" transform="rotate(225 256 263)"/><path d="M250 130h12v21h-12Z" fill="#fff0bd" transform="rotate(270 256 263)"/><path d="M250 130h12v21h-12Z" fill="#fff0bd" transform="rotate(315 256 263)"/></svg>
