<svg xmlns="http://www.w3.org/2000/svg" viewBox="0 0 512 512"><defs><linearGradient id="metal" x1="0" y1="0" x2=".85" y2="1"><stop stop-color="#fff5ca"/><stop offset=".32" stop-color="#e8be68"/><stop offset=".57" stop-color="#8b582b"/><stop offset=".76" stop-color="#f4d68a"/><stop offset="1" stop-color="#795024"/></linearGradient><linearGradient id="body" x1="0" y1="0" x2="1" y2="1"><stop stop-color="#f5ffff"/><stop offset=".36" stop-color="#8fe3ff"/><stop offset="1" stop-color="#367ac1"/></linearGradient><radialGradient id="halo"><stop stop-color="#8fe3ff" stop-opacity=".38"/><stop offset="1" stop-color="#8fe3ff" stop-opacity="0"/></radialGradient><radialGradient id="badge"><stop stop-color="#29304a" stop-opacity=".85"/><stop offset="1" stop-color="#101426" stop-opacity=".65"/></radialGradient><filter id="glow" x="-80%" y="-80%" width="260%" height="260%"><feGaussianBlur stdDeviation="7"/></filter></defs><circle cx="256" cy="263" r="235" fill="url(#halo)"/><path d="M256 42L430 142V342L256 453L82 342V142Z" fill="#16182c" fill-opacity=".55" stroke="#8fe3ff" stroke-width="3" stroke-opacity=".45"/><g transform="rotate(0 256 256)"><path d="M256 68L276 112L264 192L300 169L305 119L325 129L318 183L267 223L256 255L245 223L194 183L187 129L207 119L212 169L248 192L236 112Z" fill="url(#body)" stroke="#f3dfad" stroke-width="4" stroke-linejoin="round" /></g><g transform="rotate(60 256 256)"><path d="M256 68L276 112L264 192L300 169L305 119L325 129L318 183L267 223L256 255L245 223L194 183L187 129L207 119L212 169L248 192L236 112Z" fill="url(#body)" stroke="#f3dfad" stroke-width="4" stroke-linejoin="round" /></g><g transform="rotate(120 256 256)"><path d="M256 68L276 112L264 192L300 169L305 119L325 129L318 183L267 223L256 255L245 223L194 183L187 129L207 119L212 169L248 192L236 112Z" fill="url(#body)" stroke="#f3dfad" stroke-width="4" stroke-linejoin="round" /></g><g transform="rotate(180 256 256)"><path d="M256 68L276 112L264 192L300 169L305 119L325 129L318 183L267 223L256 255L245 223L194 183L187 129L207 119L212 169L248 192L236 112Z" fill="url(#body)" stroke="#f3dfad" stroke-width="4" stroke-linejoin="round" /></g><g transform="rotate(240 256 256)"><path d="M256 68L276 112L264 192L300 169L305 119L325 129L318 183L267 223L256 255L245 223L194 183L187 129L207 119L212 169L248 192L236 112Z" fill="url(#body)" stroke="#f3dfad" stroke-width="4" stroke-linejoin="round" /></g><g transform="rotate(300 256 256)"><path d="M256 68L276 112L264 192L300 169L305 119L325 129L318 183L267 223L256 255L245 223L194 183L187 129L207 119L212 169L248 192L236 112Z" fill="url(#body)" stroke="#f3dfad" stroke-width="4" stroke-linejoin="round" /></g><path d="M256 207L298 232V280L256 305L214 280V232Z" fill="#f3ffff" stroke="#bdf2ff" stroke-width="4" stroke-linejoin="round" /><path d="M256 207V305L214 280V232Z" fill="#8cd8ff" stroke="none" stroke-width="0" stroke-linejoin="round" /></svg>
