<svg xmlns="http://www.w3.org/2000/svg" viewBox="0 0 512 512" role="img" aria-labelledby="title"><title id="title">Nullgaze — The Void Sovereign</title><defs><linearGradient id="cloth" x1="0" y1="0" x2="1" y2="1"><stop stop-color="#ff7ad9"/><stop offset=".35" stop-color="#2a1d55"/><stop offset="1" stop-color="#100f2e"/></linearGradient><linearGradient id="dark" x2=".8" y2="1"><stop stop-color="#2a1d55"/><stop offset="1" stop-color="#100f2e"/></linearGradient><linearGradient id="skin" x2=".7" y2="1"><stop stop-color="#fff0d8"/><stop offset=".45" stop-color="#b5a8df"/><stop offset="1" stop-color="#b27672"/></linearGradient><linearGradient id="gold" x2="1" y2="1"><stop stop-color="#fff6cc"/><stop offset=".4" stop-color="#ff7ad9"/><stop offset="1" stop-color="#907045"/></linearGradient><linearGradient id="gem" x2="1" y2="1"><stop stop-color="#fff"/><stop offset=".35" stop-color="#ff7ad9"/><stop offset="1" stop-color="#2a1d55"/></linearGradient><radialGradient id="aura"><stop stop-color="#ff7ad9" stop-opacity=".25"/><stop offset=".6" stop-color="#2a1d55" stop-opacity=".1"/><stop offset="1" stop-color="#2a1d55" stop-opacity="0"/></radialGradient><radialGradient id="fire"><stop stop-color="#ffffdc"/><stop offset=".45" stop-color="#ffd466"/><stop offset="1" stop-color="#ed4b20"/></radialGradient><radialGradient id="eye"><stop stop-color="#ffdafa"/><stop offset=".35" stop-color="#ff7ad9"/><stop offset="1" stop-color="#6a2a9c"/></radialGradient><filter id="glow" x="-.6" y="-.6" width="2.2" height="2.2"><feGaussianBlur stdDeviation="6"/></filter></defs><ellipse cx="256" cy="250" rx="225" ry="224" fill="url(#aura)" /><path d="M100 292A163 163 0 0 1 390 128" fill="none" stroke="#ff7ad9" stroke-width="1" stroke-linejoin="round" stroke-linecap="round" opacity=".22"/><path d="M412 267A166 166 0 0 1 158 398" fill="none" stroke="#ff7ad9" stroke-width="1" stroke-linejoin="round" stroke-linecap="round" opacity=".15"/><path d="M90 156 91.0 159.0 94 160 91.0 161.0 90 164 89.0 161.0 86 160 89.0 159.0Z" fill="#ff7ad9" /><path d="M420 205 421.25 208.75 425 210 421.25 211.25 420 215 418.75 211.25 415 210 418.75 208.75Z" fill="#ff7ad9" /><path d="M126 337 126.75 339.25 129 340 126.75 340.75 126 343 125.25 340.75 123 340 125.25 339.25Z" fill="#ff7ad9" /><path d="M389 95 390.0 98.0 393 99 390.0 100.0 389 103 388.0 100.0 385 99 388.0 98.0Z" fill="#ff7ad9" /><path d="M366 391 366.75 393.25 369 394 366.75 394.75 366 397 365.25 394.75 363 394 365.25 393.25Z" fill="#ff7ad9" /><ellipse cx="256" cy="459" rx="135" ry="19" fill="#080f21" opacity=".3"/><ellipse cx="256" cy="456" rx="90" ry="8" fill="#ff7ad9" opacity=".08"/><path d="M78 262Q112 132 303 126Q441 124 449 243Q414 359 220 385Q83 383 78 262Z" fill="none" stroke="#ff7ad9" stroke-width="2" stroke-linejoin="round" stroke-linecap="round" opacity=".4"/><path d="M111 333Q52 193 270 173Q470 157 415 334" fill="none" stroke="#9583dc" stroke-width="3" stroke-linejoin="round" stroke-linecap="round" opacity=".5"/><path d="M139 247 109 216 130 171 176 157 183 125 216 139 240 103 268 129 302 112 325 148 368 140 386 180 414 190 400 230 426 260 398 288 405 323 367 340 356 376 315 369 279 407 254 385 217 399 195 368 154 371 145 330 115 311Z" fill="url(#dark)" stroke="#100f2e" stroke-width="4" stroke-linejoin="round" stroke-linecap="round" /><path d="M148 251 175 195 215 160 269 149 326 174 363 213 382 261 350 312 302 350 252 363 200 342 157 310Z" fill="url(#cloth)" stroke="#100f2e" stroke-width="3" stroke-linejoin="round" stroke-linecap="round" /><path d="M158 253 209 180 268 152 215 225 208 292 172 315Z" fill="#7d65b9" opacity=".25"/><path d="M304 183 376 251 350 312 303 348 304 288 333 254Z" fill="#100f2e" opacity=".55"/><path d="M153 260Q249 156 376 253Q274 360 153 260Z" fill="url(#gem)" stroke="#100f2e" stroke-width="5" stroke-linejoin="round" stroke-linecap="round" /><path d="M154 260Q249 164 376 253Q270 200 154 260Z" fill="#1a143c" /><ellipse cx="265" cy="258" rx="63" ry="64" fill="url(#eye)" /><ellipse cx="265" cy="258" rx="54" ry="54" fill="none" stroke="#ff7ad9" stroke-width="2"/><path d="M305.0 258.0 318.0 258.0" fill="none" stroke="#f2b5ed" stroke-width="2" stroke-linejoin="round" stroke-linecap="round" opacity=".55"/><path d="M302.6 271.7 314.8 276.1" fill="none" stroke="#f2b5ed" stroke-width="2" stroke-linejoin="round" stroke-linecap="round" opacity=".55"/><path d="M295.6 283.7 305.6 292.1" fill="none" stroke="#f2b5ed" stroke-width="2" stroke-linejoin="round" stroke-linecap="round" opacity=".55"/><path d="M285.0 292.6 291.5 303.9" fill="none" stroke="#f2b5ed" stroke-width="2" stroke-linejoin="round" stroke-linecap="round" opacity=".55"/><path d="M271.9 297.4 274.2 310.2" fill="none" stroke="#f2b5ed" stroke-width="2" stroke-linejoin="round" stroke-linecap="round" opacity=".55"/><path d="M258.1 297.4 255.8 310.2" fill="none" stroke="#f2b5ed" stroke-width="2" stroke-linejoin="round" stroke-linecap="round" opacity=".55"/><path d="M245.0 292.6 238.5 303.9" fill="none" stroke="#f2b5ed" stroke-width="2" stroke-linejoin="round" stroke-linecap="round" opacity=".55"/><path d="M234.4 283.7 224.4 292.1" fill="none" stroke="#f2b5ed" stroke-width="2" stroke-linejoin="round" stroke-linecap="round" opacity=".55"/><path d="M227.4 271.7 215.2 276.1" fill="none" stroke="#f2b5ed" stroke-width="2" stroke-linejoin="round" stroke-linecap="round" opacity=".55"/><path d="M225.0 258.0 212.0 258.0" fill="none" stroke="#f2b5ed" stroke-width="2" stroke-linejoin="round" stroke-linecap="round" opacity=".55"/><path d="M227.4 244.3 215.2 239.9" fill="none" stroke="#f2b5ed" stroke-width="2" stroke-linejoin="round" stroke-linecap="round" opacity=".55"/><path d="M234.4 232.3 224.4 223.9" fill="none" stroke="#f2b5ed" stroke-width="2" stroke-linejoin="round" stroke-linecap="round" opacity=".55"/><path d="M245.0 223.4 238.5 212.1" fill="none" stroke="#f2b5ed" stroke-width="2" stroke-linejoin="round" stroke-linecap="round" opacity=".55"/><path d="M258.1 218.6 255.8 205.8" fill="none" stroke="#f2b5ed" stroke-width="2" stroke-linejoin="round" stroke-linecap="round" opacity=".55"/><path d="M271.9 218.6 274.2 205.8" fill="none" stroke="#f2b5ed" stroke-width="2" stroke-linejoin="round" stroke-linecap="round" opacity=".55"/><path d="M285.0 223.4 291.5 212.1" fill="none" stroke="#f2b5ed" stroke-width="2" stroke-linejoin="round" stroke-linecap="round" opacity=".55"/><path d="M295.6 232.3 305.6 223.9" fill="none" stroke="#f2b5ed" stroke-width="2" stroke-linejoin="round" stroke-linecap="round" opacity=".55"/><path d="M302.6 244.3 314.8 239.9" fill="none" stroke="#f2b5ed" stroke-width="2" stroke-linejoin="round" stroke-linecap="round" opacity=".55"/><path d="M266 207Q290 255 266 309Q243 262 266 207Z" fill="#110f2b" /><ellipse cx="243" cy="234" rx="13" ry="9" fill="#fff0fe" opacity=".9"/><ellipse cx="287" cy="277" rx="5" ry="5" fill="#ffdbfb" /><path d="M173 272Q251 344 355 271" fill="none" stroke="#edb9ee" stroke-width="2" stroke-linejoin="round" stroke-linecap="round" /><g transform="translate(90 244) rotate(-20)"><ellipse cx="0" cy="0" rx="22.1" ry="41.6" fill="#ff7ad9" opacity=".15" filter="url(#glow)"/><path d="M0 -48.1 26.0 -6.5 9.1 49.4 -23.400000000000002 9.1Z" fill="url(#dark)" stroke="#ff7ad9" stroke-width="2" stroke-linejoin="round" stroke-linecap="round" /><path d="M0 -48.1 9.1 49.4 -23.400000000000002 9.1Z" fill="#a87bc8" opacity=".25"/><path d="M0 -28.6 6.5 29.900000000000002" fill="none" stroke="#ff7ad9" stroke-width="2" stroke-linejoin="round" stroke-linecap="round" /></g><g transform="translate(142 135) rotate(30)"><ellipse cx="0" cy="0" rx="15.3" ry="28.8" fill="#ff7ad9" opacity=".15" filter="url(#glow)"/><path d="M0 -33.300000000000004 18.0 -4.5 6.3 34.2 -16.2 6.3Z" fill="url(#dark)" stroke="#ff7ad9" stroke-width="2" stroke-linejoin="round" stroke-linecap="round" /><path d="M0 -33.300000000000004 6.3 34.2 -16.2 6.3Z" fill="#a87bc8" opacity=".25"/><path d="M0 -19.8 4.5 20.7" fill="none" stroke="#ff7ad9" stroke-width="2" stroke-linejoin="round" stroke-linecap="round" /></g><g transform="translate(360 111) rotate(25)"><ellipse cx="0" cy="0" rx="20.4" ry="38.4" fill="#ff7ad9" opacity=".15" filter="url(#glow)"/><path d="M0 -44.4 24.0 -6.0 8.4 45.6 -21.599999999999998 8.4Z" fill="url(#dark)" stroke="#ff7ad9" stroke-width="2" stroke-linejoin="round" stroke-linecap="round" /><path d="M0 -44.4 8.4 45.6 -21.599999999999998 8.4Z" fill="#a87bc8" opacity=".25"/><path d="M0 -26.4 6.0 27.599999999999998" fill="none" stroke="#ff7ad9" stroke-width="2" stroke-linejoin="round" stroke-linecap="round" /></g><g transform="translate(434 251) rotate(-20)"><ellipse cx="0" cy="0" rx="17" ry="32" fill="#ff7ad9" opacity=".15" filter="url(#glow)"/><path d="M0 -37 20 -5 7 38 -18 7Z" fill="url(#dark)" stroke="#ff7ad9" stroke-width="2" stroke-linejoin="round" stroke-linecap="round" /><path d="M0 -37 7 38 -18 7Z" fill="#a87bc8" opacity=".25"/><path d="M0 -22 5 23" fill="none" stroke="#ff7ad9" stroke-width="2" stroke-linejoin="round" stroke-linecap="round" /></g><g transform="translate(349 399) rotate(35)"><ellipse cx="0" cy="0" rx="17.85" ry="33.6" fill="#ff7ad9" opacity=".15" filter="url(#glow)"/><path d="M0 -38.85 21.0 -5.25 7.3500000000000005 39.9 -18.900000000000002 7.3500000000000005Z" fill="url(#dark)" stroke="#ff7ad9" stroke-width="2" stroke-linejoin="round" stroke-linecap="round" /><path d="M0 -38.85 7.3500000000000005 39.9 -18.900000000000002 7.3500000000000005Z" fill="#a87bc8" opacity=".25"/><path d="M0 -23.1 5.25 24.150000000000002" fill="none" stroke="#ff7ad9" stroke-width="2" stroke-linejoin="round" stroke-linecap="round" /></g><g transform="translate(133 387) rotate(-20)"><ellipse cx="0" cy="0" rx="14.45" ry="27.2" fill="#ff7ad9" opacity=".15" filter="url(#glow)"/><path d="M0 -31.45 17.0 -4.25 5.95 32.3 -15.299999999999999 5.95Z" fill="url(#dark)" stroke="#ff7ad9" stroke-width="2" stroke-linejoin="round" stroke-linecap="round" /><path d="M0 -31.45 5.95 32.3 -15.299999999999999 5.95Z" fill="#a87bc8" opacity=".25"/><path d="M0 -18.7 4.25 19.55" fill="none" stroke="#ff7ad9" stroke-width="2" stroke-linejoin="round" stroke-linecap="round" /></g><path d="M227 368 237 410 219 441M279 378 290 422 311 440" fill="none" stroke="#ff7ad9" stroke-width="2" stroke-linejoin="round" stroke-linecap="round" opacity=".5"/><ellipse cx="266" cy="258" rx="45" ry="45" fill="#ff7ad9" opacity=".15" filter="url(#glow)"/></svg>