<svg xmlns="http://www.w3.org/2000/svg" viewBox="0 0 480 400"><defs><linearGradient id="sky" x2="0" y2="1"><stop stop-color="#5a9ad0"/><stop offset="1" stop-color="#f2f8ff"/></linearGradient><linearGradient id="land" x2="0" y2="1"><stop stop-color="#dcecf7"/><stop offset="1" stop-color="#b8d4ea"/></linearGradient><radialGradient id="light"><stop stop-color="#fff5d1"/><stop offset=".5" stop-color="#8fe3ff"/><stop offset="1" stop-color="#4aa8e8"/></radialGradient><filter id="glow"><feGaussianBlur stdDeviation="7"/></filter></defs><path fill="url(#sky)" d="M0 0H480V400H0Z"/><circle cx="370" cy="75" r="43" fill="#cfe4f4" opacity=".3"/><path d="M0 272L123 250 247 277 367 245 480 272V400H0Z" fill="url(#land)"/><path d="M0 298L110 129 218 298 309 107 462 300Z" fill="#739bb8"/><path d="M61 205L110 129 160 208 113 185 95 208M259 180L309 107 362 183 319 160 298 178" fill="#eaf6ff"/><g fill="#28586b"><path d="M83 330L117 244H99L121 196 143 244H128L162 330Z"/><path d="M340 323L375 236H355L379 180 401 236H390L426 323Z"/></g><path d="M101 240L121 196 139 240 120 228M359 231L379 180 399 231 378 215" fill="#edf6ff"/><path d="M198 354L227 283 260 345 294 322 318 355" fill="#d4f2ff" stroke="#93c5e6" stroke-width="3"/><path d="M0 365L178 334 306 376 480 343V400H0Z" fill="#b8d4ea" opacity=".65"/><path d="M0 384L172 356M358 380L480 359" stroke="#4aa8e8" stroke-opacity=".3" stroke-width="2"/></svg>