<svg xmlns="http://www.w3.org/2000/svg" viewBox="0 0 512 512" role="img" aria-labelledby="title"><title id="title">Sylva — Grove Witch</title><defs><linearGradient id="cloth" x1="0" y1="0" x2="1" y2="1"><stop stop-color="#d5f5a0"/><stop offset=".35" stop-color="#3d9a4a"/><stop offset="1" stop-color="#26612f"/></linearGradient><linearGradient id="dark" x2=".8" y2="1"><stop stop-color="#3d9a4a"/><stop offset="1" stop-color="#26612f"/></linearGradient><linearGradient id="skin" x2=".7" y2="1"><stop stop-color="#fff0d8"/><stop offset=".45" stop-color="#e8c4a0"/><stop offset="1" stop-color="#b27672"/></linearGradient><linearGradient id="gold" x2="1" y2="1"><stop stop-color="#fff6cc"/><stop offset=".4" stop-color="#d5f5a0"/><stop offset="1" stop-color="#907045"/></linearGradient><linearGradient id="gem" x2="1" y2="1"><stop stop-color="#fff"/><stop offset=".35" stop-color="#d5f5a0"/><stop offset="1" stop-color="#3d9a4a"/></linearGradient><radialGradient id="aura"><stop stop-color="#d5f5a0" stop-opacity=".25"/><stop offset=".6" stop-color="#3d9a4a" stop-opacity=".1"/><stop offset="1" stop-color="#3d9a4a" stop-opacity="0"/></radialGradient><radialGradient id="fire"><stop stop-color="#ffffdc"/><stop offset=".45" stop-color="#ffd466"/><stop offset="1" stop-color="#ed4b20"/></radialGradient><radialGradient id="eye"><stop stop-color="#ffdafa"/><stop offset=".35" stop-color="#ff7ad9"/><stop offset="1" stop-color="#6a2a9c"/></radialGradient><filter id="glow" x="-.6" y="-.6" width="2.2" height="2.2"><feGaussianBlur stdDeviation="6"/></filter></defs><ellipse cx="256" cy="250" rx="225" ry="224" fill="url(#aura)" /><path d="M100 292A163 163 0 0 1 390 128" fill="none" stroke="#d5f5a0" stroke-width="1" stroke-linejoin="round" stroke-linecap="round" opacity=".22"/><path d="M412 267A166 166 0 0 1 158 398" fill="none" stroke="#d5f5a0" stroke-width="1" stroke-linejoin="round" stroke-linecap="round" opacity=".15"/><path d="M90 156 91.0 159.0 94 160 91.0 161.0 90 164 89.0 161.0 86 160 89.0 159.0Z" fill="#d5f5a0" /><path d="M420 205 421.25 208.75 425 210 421.25 211.25 420 215 418.75 211.25 415 210 418.75 208.75Z" fill="#d5f5a0" /><path d="M126 337 126.75 339.25 129 340 126.75 340.75 126 343 125.25 340.75 123 340 125.25 339.25Z" fill="#d5f5a0" /><path d="M389 95 390.0 98.0 393 99 390.0 100.0 389 103 388.0 100.0 385 99 388.0 98.0Z" fill="#d5f5a0" /><path d="M366 391 366.75 393.25 369 394 366.75 394.75 366 397 365.25 394.75 363 394 365.25 393.25Z" fill="#d5f5a0" /><ellipse cx="256" cy="459" rx="135" ry="19" fill="#080f21" opacity=".3"/><ellipse cx="256" cy="456" rx="90" ry="8" fill="#d5f5a0" opacity=".08"/><path d="M215 379 208 445Q220 461 246 450L254 395Z" fill="url(#dark)" stroke="#171b32" stroke-width="3" stroke-linejoin="round" stroke-linecap="round" /><path d="M269 390 276 448Q300 463 322 449L307 381Z" fill="url(#dark)" stroke="#171b32" stroke-width="3" stroke-linejoin="round" stroke-linecap="round" /><path d="M211 216Q160 241 151 312L179 335 202 298 183 427Q252 470 333 429L311 295 341 323 371 303Q350 233 300 213Z" fill="url(#cloth)" stroke="#26612f" stroke-width="3" stroke-linejoin="round" stroke-linecap="round" /><path d="M212 219 198 315 183 427 221 438 239 300Z" fill="#d5f5a0" opacity=".13"/><path d="M269 259 295 427 331 429 303 288Z" fill="#26612f" opacity=".45"/><path d="M210 290 200 409M232 337 226 432M274 342 290 431M316 263 345 301" fill="none" stroke="#d5f5a0" stroke-width="2" stroke-linejoin="round" stroke-linecap="round" opacity=".4"/><path d="M191 422Q260 453 329 424L333 433Q256 467 184 434Z" fill="url(#gold)" /><path d="M205 222 245 291 269 254 300 218 280 210 252 242 226 208Z" fill="url(#dark)" stroke="#d5f5a0" stroke-width="2" stroke-linejoin="round" stroke-linecap="round" /><path d="M202 316Q250 332 310 314L313 328Q256 345 200 330Z" fill="url(#gold)" stroke="#26612f" stroke-width="2" stroke-linejoin="round" stroke-linecap="round" /><g transform="translate(256 329) scale(0.52)"><path d="M0 -25 15 0 0 25 -15 0Z" fill="url(#gem)" stroke="#ecedff" stroke-width="1" stroke-linejoin="round" stroke-linecap="round" /><path d="M0 -25 0 25 -15 0Z" fill="#fff" opacity=".22"/></g><path d="M163 294Q148 303 154 322L171 329 186 314 183 301Z" fill="url(#skin)" stroke="#26612f" stroke-width="2" stroke-linejoin="round" stroke-linecap="round" /><path d="M344 288Q368 285 371 302L356 315 341 307Z" fill="url(#skin)" stroke="#26612f" stroke-width="2" stroke-linejoin="round" stroke-linecap="round" /><ellipse cx="255" cy="179" rx="45" ry="55" fill="url(#skin)" /><path d="M211 167Q226 128 267 138L297 163 290 185 274 151 231 155 219 191Z" fill="#26612f" /><path d="M220 201Q255 235 283 202L273 225Q249 246 229 224Z" fill="#e8c4a0" /><path d="M233 181 244 178M267 178 278 181" fill="none" stroke="#26612f" stroke-width="3" stroke-linejoin="round" stroke-linecap="round" /><ellipse cx="240" cy="187" rx="3.3" ry="4.7" fill="#26612f" /><ellipse cx="273" cy="187" rx="3.3" ry="4.7" fill="#26612f" /><ellipse cx="241" cy="185" rx="1" ry="1" fill="white" /><ellipse cx="274" cy="185" rx="1" ry="1" fill="white" /><path d="M249 206Q259 213 268 205" fill="none" stroke="#874f5b" stroke-width="2" stroke-linejoin="round" stroke-linecap="round" /><path d="M210 187Q193 139 222 121Q260 99 294 132L313 205 292 230 277 153 233 151 228 220 211 232Z" fill="url(#dark)" stroke="#26612f" stroke-width="2" stroke-linejoin="round" stroke-linecap="round" /><path d="M221 172 215 217M294 163 302 211" fill="none" stroke="#83bc65" stroke-width="3" stroke-linejoin="round" stroke-linecap="round" /><path d="M220 148 201 126 196 95 181 80M199 112 173 101M288 146 308 120 316 85 333 72M312 103 340 97" fill="none" stroke="#26612f" stroke-width="8" stroke-linejoin="round" stroke-linecap="round" /><path d="M220 148 201 126 196 95M288 146 308 120 316 85" fill="none" stroke="#d5f5a0" stroke-width="2" stroke-linejoin="round" stroke-linecap="round" /><g transform="translate(194 98) rotate(-35)"><path d="M0 0Q-18 -14 0 -36Q17 -15 0 0Z" fill="url(#cloth)" stroke="#d5f5a0" stroke-width="1" stroke-linejoin="round" stroke-linecap="round" /><path d="M0 -3 0 -29" fill="none" stroke="#d5f5a0" stroke-width="1" stroke-linejoin="round" stroke-linecap="round" /></g><g transform="translate(181 112) rotate(-50)"><path d="M0 0Q-18 -14 0 -36Q17 -15 0 0Z" fill="url(#cloth)" stroke="#d5f5a0" stroke-width="1" stroke-linejoin="round" stroke-linecap="round" /><path d="M0 -3 0 -29" fill="none" stroke="#d5f5a0" stroke-width="1" stroke-linejoin="round" stroke-linecap="round" /></g><g transform="translate(316 89) rotate(35)"><path d="M0 0Q-18 -14 0 -36Q17 -15 0 0Z" fill="url(#cloth)" stroke="#d5f5a0" stroke-width="1" stroke-linejoin="round" stroke-linecap="round" /><path d="M0 -3 0 -29" fill="none" stroke="#d5f5a0" stroke-width="1" stroke-linejoin="round" stroke-linecap="round" /></g><g transform="translate(335 99) rotate(55)"><path d="M0 0Q-18 -14 0 -36Q17 -15 0 0Z" fill="url(#cloth)" stroke="#d5f5a0" stroke-width="1" stroke-linejoin="round" stroke-linecap="round" /><path d="M0 -3 0 -29" fill="none" stroke="#d5f5a0" stroke-width="1" stroke-linejoin="round" stroke-linecap="round" /></g><g transform="translate(226 138) rotate(-40)"><path d="M0 0Q-18 -14 0 -36Q17 -15 0 0Z" fill="url(#cloth)" stroke="#d5f5a0" stroke-width="1" stroke-linejoin="round" stroke-linecap="round" /><path d="M0 -3 0 -29" fill="none" stroke="#d5f5a0" stroke-width="1" stroke-linejoin="round" stroke-linecap="round" /></g><g transform="translate(278 137) rotate(35)"><path d="M0 0Q-18 -14 0 -36Q17 -15 0 0Z" fill="url(#cloth)" stroke="#d5f5a0" stroke-width="1" stroke-linejoin="round" stroke-linecap="round" /><path d="M0 -3 0 -29" fill="none" stroke="#d5f5a0" stroke-width="1" stroke-linejoin="round" stroke-linecap="round" /></g><path d="M198 228 219 254 239 245 258 268 281 244 302 251 314 227Q258 247 198 228Z" fill="url(#cloth)" stroke="#d5f5a0" stroke-width="2" stroke-linejoin="round" stroke-linecap="round" /><g transform="translate(259 251) scale(0.35)"><path d="M0 -25 15 0 0 25 -15 0Z" fill="url(#gem)" stroke="#ecedff" stroke-width="1" stroke-linejoin="round" stroke-linecap="round" /><path d="M0 -25 0 25 -15 0Z" fill="#fff" opacity=".22"/></g><path d="M365 430Q348 336 367 263Q387 192 370 144" fill="none" stroke="#734b2f" stroke-width="11" stroke-linejoin="round" stroke-linecap="round" /><path d="M363 425Q350 341 366 271Q383 194 367 153" fill="none" stroke="#d5f5a0" stroke-width="2" stroke-linejoin="round" stroke-linecap="round" /><path d="M370 164Q333 152 329 111Q370 112 375 145Q384 107 415 105Q422 144 370 164Z" fill="url(#cloth)" stroke="#d5f5a0" stroke-width="2" stroke-linejoin="round" stroke-linecap="round" /><path d="M335 119 370 156 409 113" fill="none" stroke="#d5f5a0" stroke-width="2" stroke-linejoin="round" stroke-linecap="round" /><ellipse cx="370" cy="158" rx="8" ry="8" fill="#7dff8a" filter="url(#glow)"/><g transform="translate(370 158) scale(0.35)"><path d="M0 -25 15 0 0 25 -15 0Z" fill="url(#gem)" stroke="#ecedff" stroke-width="1" stroke-linejoin="round" stroke-linecap="round" /><path d="M0 -25 0 25 -15 0Z" fill="#fff" opacity=".22"/></g><path d="M206 381Q247 370 278 400M219 425Q236 399 211 376" fill="none" stroke="#d5f5a0" stroke-width="2" stroke-linejoin="round" stroke-linecap="round" opacity=".7"/></svg>